<svg xmlns="http://www.w3.org/2000/svg" version="1.1" xmlns:xlink="http://www.w3.org/1999/xlink" xmlns:svgjs="http://svgjs.dev/svgjs" width="3840" height="2000" preserveAspectRatio="none" viewBox="0 0 3840 2000"><g mask="url(&quot;#SvgjsMask1025&quot;)" fill="none"><rect width="3840" height="2000" x="0" y="0" fill="rgba(27, 0, 0, 1)"></rect><path d="M0,1463.194C291.634,1444.455,592.207,1461.196,846.429,1317.069C1108.014,1168.768,1286.145,917.165,1429.434,652.801C1580.829,373.483,1771.261,64.41,1692.172,-243.298C1613.65,-548.801,1231.263,-649.701,1031.843,-894.097C823.483,-1149.449,808.169,-1586.26,500.324,-1703.946C195.147,-1820.612,-138.666,-1606.635,-426.196,-1451.489C-672.157,-1318.773,-826.76,-1085.762,-1019.839,-883.696C-1224.497,-669.512,-1493.52,-507.837,-1594.124,-229.2C-1705.208,78.462,-1726.461,429.171,-1603.267,732.187C-1478.019,1040.256,-1221.934,1292.566,-919.346,1430.53C-634.569,1560.373,-312.337,1483.263,0,1463.194" fill="#160000"></path><path d="M3840 3824.3599999999997C4175.262 3803.416 4391.855 3473.651 4645.58 3253.507 4863.184 3064.703 5109.229 2896.063 5217.5689999999995 2629.115 5323.761 2367.459 5241.169 2081.653 5235.756 1799.321 5229.465 1471.188 5390.605 1090.461 5183.195 836.115 4976.493 582.6379999999999 4574.628 652.56 4252.844 593.982 3967.097 541.9639999999999 3686.573 448.8040000000001 3403.103 512.0640000000001 3108.428 577.825 2802.873 704.76 2634.2309999999998 955.1959999999999 2470.282 1198.663 2572.193 1521.184 2528.149 1811.384 2483.642 2104.639 2293.101 2384.122 2374.056 2669.474 2458.459 2966.98 2724.1130000000003 3166.99 2967.032 3358.364 3231.493 3566.709 3503.984 3845.351 3840 3824.3599999999997" fill="#200000"></path></g><defs><mask id="SvgjsMask1025"><rect width="3840" height="2000" fill="#ffffff"></rect></mask></defs></svg>